<?xml version="1.0" encoding="UTF-8" standalone="no"?>
<svg
   xmlns:dc="http://purl.org/dc/elements/1.1/"
   xmlns:cc="http://creativecommons.org/ns#"
   xmlns:rdf="http://www.w3.org/1999/02/22-rdf-syntax-ns#"
   xmlns:svg="http://www.w3.org/2000/svg"
   xmlns="http://www.w3.org/2000/svg"
   viewBox="0 0 7000 3000"
   height="3000"
   width="7000"
   xml:space="preserve"
   id="svg2"
   version="1.1"><metadata
     id="metadata8"><rdf:RDF><cc:Work
         rdf:about=""><dc:format>image/svg+xml</dc:format><dc:type
           rdf:resource="http://purl.org/dc/dcmitype/StillImage" /></cc:Work></rdf:RDF></metadata><defs
     id="defs6"><clipPath
       id="clipPath18"
       clipPathUnits="userSpaceOnUse"><path
         style="clip-rule:evenodd"
         id="path16"
         d="M 0,0 H 21875 V 9375 H 0 Z" /></clipPath><clipPath
       id="clipPath30"
       clipPathUnits="userSpaceOnUse"><path
         style="clip-rule:evenodd"
         id="path28"
         d="M 0,0 H 21875 V 9375 H 0 Z" /></clipPath><clipPath
       id="clipPath42"
       clipPathUnits="userSpaceOnUse"><path
         style="clip-rule:evenodd"
         id="path40"
         d="M 1250,937.5 H 20000 V 8125 H 1250 Z" /></clipPath><clipPath
       id="clipPath274"
       clipPathUnits="userSpaceOnUse"><path
         style="clip-rule:evenodd"
         id="path272"
         d="M 0,0 H 21875 V 9375 H 0 Z" /></clipPath><clipPath
       id="clipPath334"
       clipPathUnits="userSpaceOnUse"><path
         style="clip-rule:evenodd"
         id="path332"
         d="m 18625,2046.875 h 3062.5 V 3093.75 H 18625 Z" /></clipPath><clipPath
       id="clipPath372"
       clipPathUnits="userSpaceOnUse"><path
         style="clip-rule:evenodd"
         id="path370"
         d="M 0,0 H 21875 V 9375 H 0 Z" /></clipPath></defs><g
     transform="matrix(0.31999998,0,0,0.31999998,0,7.5e-5)"
     id="g10"><g
       id="g12"><g
         clip-path="url(#clipPath18)"
         id="g14"><g
           transform="scale(3.125)"
           id="g20"><path
             id="path22"
             style="fill:#ffffff;fill-opacity:1;fill-rule:nonzero;stroke:none"
             d="M 0,0 H 7000 V 3000 H 0 Z" /></g></g></g><g
       id="g24"><g
         clip-path="url(#clipPath30)"
         id="g26"><g
           transform="scale(15.625)"
           id="g32"><path
             id="path34"
             style="fill:#ffffff;fill-opacity:1;fill-rule:nonzero;stroke:none"
             d="M 80,60 H 1280 V 520 H 80 Z" /></g></g></g><g
       id="g36"><g
         clip-path="url(#clipPath42)"
         id="g38"><g
           transform="matrix(15.625,0,0,15.625,1250,937.5)"
           id="g44"><path
             id="path46"
             style="fill:#00b0d1;fill-opacity:1;fill-rule:nonzero;stroke:none"
             d="m 1185,460 v -36.57001 h -60 V 460 Z" /></g><g
           transform="matrix(3.125,0,0,3.125,1250,937.5)"
           id="g48"><path
             id="path50"
             style="fill:none;stroke:#e5ecf6;stroke-width:1;stroke-linecap:butt;stroke-linejoin:miter;stroke-miterlimit:10;stroke-dasharray:none;stroke-opacity:1"
             d="M 5925,2300 V 2117.1499 H 5625 V 2300 Z" /></g><g
           transform="matrix(3.125,0,0,3.125,19295.898,7444.2188)"
           id="g52"><text
             id="text56"
             style="font-variant:normal;font-weight:normal;font-size:60px;font-family:OpenSans;-inkscape-font-specification:OpenSans;writing-mode:lr-tb;fill:#000000;fill-opacity:1;fill-rule:nonzero;stroke:none"
             transform="translate(-34.306641)"><tspan
               id="tspan54"
               y="0"
               x="0 34.306641">20</tspan></text>
</g><g
           transform="matrix(15.625,0,0,15.625,1250,937.5)"
           id="g58"><path
             id="path60"
             style="fill:#00b0d1;fill-opacity:1;fill-rule:nonzero;stroke:none"
             d="M 1035,460 V 355.78 H 975 V 460 Z" /></g><g
           transform="matrix(3.125,0,0,3.125,1250,937.5)"
           id="g62"><path
             id="path64"
             style="fill:none;stroke:#e5ecf6;stroke-width:1;stroke-linecap:butt;stroke-linejoin:miter;stroke-miterlimit:10;stroke-dasharray:none;stroke-opacity:1"
             d="M 5175,2300 V 1778.9 H 4875 V 2300 Z" /></g><g
           transform="matrix(3.125,0,0,3.125,16952.148,6387.1875)"
           id="g66"><text
             id="text70"
             style="font-variant:normal;font-weight:normal;font-size:60px;font-family:OpenSans;-inkscape-font-specification:OpenSans;writing-mode:lr-tb;fill:#000000;fill-opacity:1;fill-rule:nonzero;stroke:none"
             transform="translate(-34.306641)"><tspan
               id="tspan68"
               y="0"
               x="0 34.306641">57</tspan></text>
</g><g
           transform="matrix(15.625,0,0,15.625,1250,937.5)"
           id="g72"><path
             id="path74"
             style="fill:#00b0d1;fill-opacity:1;fill-rule:nonzero;stroke:none"
             d="M 885,460 V 269.84 H 825 V 460 Z" /></g><g
           transform="matrix(3.125,0,0,3.125,1250,937.5)"
           id="g76"><path
             id="path78"
             style="fill:none;stroke:#e5ecf6;stroke-width:1;stroke-linecap:butt;stroke-linejoin:miter;stroke-miterlimit:10;stroke-dasharray:none;stroke-opacity:1"
             d="M 4425,2300 V 1349.2 H 4125 V 2300 Z" /></g><g
           transform="matrix(3.125,0,0,3.125,14608.276,5044.375)"
           id="g80"><text
             id="text84"
             style="font-variant:normal;font-weight:normal;font-size:60px;font-family:OpenSans;-inkscape-font-specification:OpenSans;writing-mode:lr-tb;fill:#000000;fill-opacity:1;fill-rule:nonzero;stroke:none"
             transform="translate(-51.459961)"><tspan
               id="tspan82"
               y="0"
               x="0 34.306641 68.613281">104</tspan></text>
</g><g
           transform="matrix(15.625,0,0,15.625,1250,937.5)"
           id="g86"><path
             id="path88"
             style="fill:#00b0d1;fill-opacity:1;fill-rule:nonzero;stroke:none"
             d="M 735,460 V 68.709999 H 675 V 460 Z" /></g><g
           transform="matrix(3.125,0,0,3.125,1250,937.5)"
           id="g90"><path
             id="path92"
             style="fill:none;stroke:#e5ecf6;stroke-width:1;stroke-linecap:butt;stroke-linejoin:miter;stroke-miterlimit:10;stroke-dasharray:none;stroke-opacity:1"
             d="M 3675,2300 V 343.54999 H 3375 V 2300 Z" /></g><g
           transform="matrix(3.125,0,0,3.125,12264.526,1901.7188)"
           id="g94"><text
             id="text98"
             style="font-variant:normal;font-weight:normal;font-size:60px;font-family:OpenSans;-inkscape-font-specification:OpenSans;writing-mode:lr-tb;fill:#000000;fill-opacity:1;fill-rule:nonzero;stroke:none"
             transform="translate(-51.459961)"><tspan
               id="tspan96"
               y="0"
               x="0 34.306641 68.613281">214</tspan></text>
</g><g
           transform="matrix(15.625,0,0,15.625,1250,937.5)"
           id="g100"><path
             id="path102"
             style="fill:#00b0d1;fill-opacity:1;fill-rule:nonzero;stroke:none"
             d="M 585,460 V 394.17999 H 525 V 460 Z" /></g><g
           transform="matrix(3.125,0,0,3.125,1250,937.5)"
           id="g104"><path
             id="path106"
             style="fill:none;stroke:#e5ecf6;stroke-width:1;stroke-linecap:butt;stroke-linejoin:miter;stroke-miterlimit:10;stroke-dasharray:none;stroke-opacity:1"
             d="M 2925,2300 V 1970.8999 H 2625 V 2300 Z" /></g><g
           transform="matrix(3.125,0,0,3.125,9920.8984,6987.1875)"
           id="g108"><text
             id="text112"
             style="font-variant:normal;font-weight:normal;font-size:60px;font-family:OpenSans;-inkscape-font-specification:OpenSans;writing-mode:lr-tb;fill:#000000;fill-opacity:1;fill-rule:nonzero;stroke:none"
             transform="translate(-34.306641)"><tspan
               id="tspan110"
               y="0"
               x="0 34.306641">36</tspan></text>
</g><g
           transform="matrix(15.625,0,0,15.625,1250,937.5)"
           id="g114"><path
             id="path116"
             style="fill:#00b0d1;fill-opacity:1;fill-rule:nonzero;stroke:none"
             d="M 435,460 V 381.38 H 375 V 460 Z" /></g><g
           transform="matrix(3.125,0,0,3.125,1250,937.5)"
           id="g118"><path
             id="path120"
             style="fill:none;stroke:#e5ecf6;stroke-width:1;stroke-linecap:butt;stroke-linejoin:miter;stroke-miterlimit:10;stroke-dasharray:none;stroke-opacity:1"
             d="M 2175,2300 V 1906.9 H 1875 V 2300 Z" /></g><g
           transform="matrix(3.125,0,0,3.125,7577.1484,6787.1875)"
           id="g122"><text
             id="text126"
             style="font-variant:normal;font-weight:normal;font-size:60px;font-family:OpenSans;-inkscape-font-specification:OpenSans;writing-mode:lr-tb;fill:#000000;fill-opacity:1;fill-rule:nonzero;stroke:none"
             transform="translate(-34.306641)"><tspan
               id="tspan124"
               y="0"
               x="0 34.306641">43</tspan></text>
</g><g
           transform="matrix(15.625,0,0,15.625,1250,937.5)"
           id="g128"><path
             id="path130"
             style="fill:#00b0d1;fill-opacity:1;fill-rule:nonzero;stroke:none"
             d="M 285,460 V 23 h -60 v 437 z" /></g><g
           transform="matrix(3.125,0,0,3.125,1250,937.5)"
           id="g132"><path
             id="path134"
             style="fill:none;stroke:#e5ecf6;stroke-width:1;stroke-linecap:butt;stroke-linejoin:miter;stroke-miterlimit:10;stroke-dasharray:none;stroke-opacity:1"
             d="M 1425,2300 V 115 h -300 v 2185 z" /></g><g
           transform="matrix(3.125,0,0,3.125,5233.2764,1187.5)"
           id="g136"><text
             id="text140"
             style="font-variant:normal;font-weight:normal;font-size:60px;font-family:OpenSans;-inkscape-font-specification:OpenSans;writing-mode:lr-tb;fill:#000000;fill-opacity:1;fill-rule:nonzero;stroke:none"
             transform="translate(-51.459961)"><tspan
               id="tspan138"
               y="0"
               x="0 34.306641 68.613281">239</tspan></text>
</g><g
           transform="matrix(15.625,0,0,15.625,1250,937.5)"
           id="g142"><path
             id="path144"
             style="fill:#00b0d1;fill-opacity:1;fill-rule:nonzero;stroke:none"
             d="M 135,460 V 110.77 H 75 V 460 Z" /></g><g
           transform="matrix(3.125,0,0,3.125,1250,937.5)"
           id="g146"><path
             id="path148"
             style="fill:none;stroke:#e5ecf6;stroke-width:1;stroke-linecap:butt;stroke-linejoin:miter;stroke-miterlimit:10;stroke-dasharray:none;stroke-opacity:1"
             d="M 675,2300 V 553.84998 H 375 V 2300 Z" /></g><g
           transform="matrix(3.125,0,0,3.125,2890.625,2558.9063)"
           id="g150"><text
             id="text154"
             style="font-variant:normal;font-weight:normal;font-size:60px;font-family:OpenSans;-inkscape-font-specification:OpenSans;writing-mode:lr-tb;fill:#000000;fill-opacity:1;fill-rule:nonzero;stroke:none"
             transform="translate(-51.459961)"><tspan
               id="tspan152"
               y="0"
               x="0 34.306641 68.613281">191</tspan></text>
</g><g
           transform="matrix(15.625,0,0,15.625,1250,937.5)"
           id="g156"><path
             id="path158"
             style="fill:#73c25c;fill-opacity:1;fill-rule:nonzero;stroke:none"
             d="m 1125,460 v -16.45999 h -60 V 460 Z" /></g><g
           transform="matrix(3.125,0,0,3.125,1250,937.5)"
           id="g160"><path
             id="path162"
             style="fill:none;stroke:#e5ecf6;stroke-width:1;stroke-linecap:butt;stroke-linejoin:miter;stroke-miterlimit:10;stroke-dasharray:none;stroke-opacity:1"
             d="m 5625,2300 v -82.3 h -300 v 82.3 z" /></g><g
           transform="matrix(3.125,0,0,3.125,18358.277,7758.4375)"
           id="g164"><text
             id="text168"
             style="font-variant:normal;font-weight:normal;font-size:60px;font-family:OpenSans;-inkscape-font-specification:OpenSans;writing-mode:lr-tb;fill:#000000;fill-opacity:1;fill-rule:nonzero;stroke:none"
             transform="translate(-17.15332)"><tspan
               id="tspan166"
               y="0"
               x="0">9</tspan></text>
</g><g
           transform="matrix(15.625,0,0,15.625,1250,937.5)"
           id="g170"><path
             id="path172"
             style="fill:#73c25c;fill-opacity:1;fill-rule:nonzero;stroke:none"
             d="M 975,460 V 386.85999 H 915 V 460 Z" /></g><g
           transform="matrix(3.125,0,0,3.125,1250,937.5)"
           id="g174"><path
             id="path176"
             style="fill:none;stroke:#e5ecf6;stroke-width:1;stroke-linecap:butt;stroke-linejoin:miter;stroke-miterlimit:10;stroke-dasharray:none;stroke-opacity:1"
             d="M 4875,2300 V 1934.2999 H 4575 V 2300 Z" /></g><g
           transform="matrix(3.125,0,0,3.125,16014.648,6872.8125)"
           id="g178"><text
             id="text182"
             style="font-variant:normal;font-weight:normal;font-size:60px;font-family:OpenSans;-inkscape-font-specification:OpenSans;writing-mode:lr-tb;fill:#000000;fill-opacity:1;fill-rule:nonzero;stroke:none"
             transform="translate(-34.306641)"><tspan
               id="tspan180"
               y="0"
               x="0 34.306641">40</tspan></text>
</g><g
           transform="matrix(15.625,0,0,15.625,1250,937.5)"
           id="g184"><path
             id="path186"
             style="fill:#73c25c;fill-opacity:1;fill-rule:nonzero;stroke:none"
             d="M 825,460 V 434.39999 H 765 V 460 Z" /></g><g
           transform="matrix(3.125,0,0,3.125,1250,937.5)"
           id="g188"><path
             id="path190"
             style="fill:none;stroke:#e5ecf6;stroke-width:1;stroke-linecap:butt;stroke-linejoin:miter;stroke-miterlimit:10;stroke-dasharray:none;stroke-opacity:1"
             d="m 4125,2300 v -128 h -300 v 128 z" /></g><g
           transform="matrix(3.125,0,0,3.125,13670.898,7615.625)"
           id="g192"><text
             id="text196"
             style="font-variant:normal;font-weight:normal;font-size:60px;font-family:OpenSans;-inkscape-font-specification:OpenSans;writing-mode:lr-tb;fill:#000000;fill-opacity:1;fill-rule:nonzero;stroke:none"
             transform="translate(-34.306641)"><tspan
               id="tspan194"
               y="0"
               x="0 34.306641">14</tspan></text>
</g><g
           transform="matrix(15.625,0,0,15.625,1250,937.5)"
           id="g198"><path
             id="path200"
             style="fill:#73c25c;fill-opacity:1;fill-rule:nonzero;stroke:none"
             d="M 675,460 V 416.12 H 615 V 460 Z" /></g><g
           transform="matrix(3.125,0,0,3.125,1250,937.5)"
           id="g202"><path
             id="path204"
             style="fill:none;stroke:#e5ecf6;stroke-width:1;stroke-linecap:butt;stroke-linejoin:miter;stroke-miterlimit:10;stroke-dasharray:none;stroke-opacity:1"
             d="M 3375,2300 V 2080.6001 H 3075 V 2300 Z" /></g><g
           transform="matrix(3.125,0,0,3.125,11327.148,7330)"
           id="g206"><text
             id="text210"
             style="font-variant:normal;font-weight:normal;font-size:60px;font-family:OpenSans;-inkscape-font-specification:OpenSans;writing-mode:lr-tb;fill:#000000;fill-opacity:1;fill-rule:nonzero;stroke:none"
             transform="translate(-34.306641)"><tspan
               id="tspan208"
               y="0"
               x="0 34.306641">24</tspan></text>
</g><g
           transform="matrix(15.625,0,0,15.625,1250,937.5)"
           id="g212"><path
             id="path214"
             style="fill:#73c25c;fill-opacity:1;fill-rule:nonzero;stroke:none"
             d="M 525,460 V 430.73999 H 465 V 460 Z" /></g><g
           transform="matrix(3.125,0,0,3.125,1250,937.5)"
           id="g216"><path
             id="path218"
             style="fill:none;stroke:#e5ecf6;stroke-width:1;stroke-linecap:butt;stroke-linejoin:miter;stroke-miterlimit:10;stroke-dasharray:none;stroke-opacity:1"
             d="M 2625,2300 V 2153.7 H 2325 V 2300 Z" /></g><g
           transform="matrix(3.125,0,0,3.125,8983.3984,7558.4375)"
           id="g220"><text
             id="text224"
             style="font-variant:normal;font-weight:normal;font-size:60px;font-family:OpenSans;-inkscape-font-specification:OpenSans;writing-mode:lr-tb;fill:#000000;fill-opacity:1;fill-rule:nonzero;stroke:none"
             transform="translate(-34.306641)"><tspan
               id="tspan222"
               y="0"
               x="0 34.306641">16</tspan></text>
</g><g
           transform="matrix(15.625,0,0,15.625,1250,937.5)"
           id="g226"><path
             id="path228"
             style="fill:#73c25c;fill-opacity:1;fill-rule:nonzero;stroke:none"
             d="M 375,460 V 432.57001 H 315 V 460 Z" /></g><g
           transform="matrix(3.125,0,0,3.125,1250,937.5)"
           id="g230"><path
             id="path232"
             style="fill:none;stroke:#e5ecf6;stroke-width:1;stroke-linecap:butt;stroke-linejoin:miter;stroke-miterlimit:10;stroke-dasharray:none;stroke-opacity:1"
             d="M 1875,2300 V 2162.8501 H 1575 V 2300 Z" /></g><g
           transform="matrix(3.125,0,0,3.125,6639.6484,7587.0313)"
           id="g234"><text
             id="text238"
             style="font-variant:normal;font-weight:normal;font-size:60px;font-family:OpenSans;-inkscape-font-specification:OpenSans;writing-mode:lr-tb;fill:#000000;fill-opacity:1;fill-rule:nonzero;stroke:none"
             transform="translate(-34.306641)"><tspan
               id="tspan236"
               y="0"
               x="0 34.306641">15</tspan></text>
</g><g
           transform="matrix(15.625,0,0,15.625,1250,937.5)"
           id="g240"><path
             id="path242"
             style="fill:#73c25c;fill-opacity:1;fill-rule:nonzero;stroke:none"
             d="M 225,460 V 430.73999 H 165 V 460 Z" /></g><g
           transform="matrix(3.125,0,0,3.125,1250,937.5)"
           id="g244"><path
             id="path246"
             style="fill:none;stroke:#e5ecf6;stroke-width:1;stroke-linecap:butt;stroke-linejoin:miter;stroke-miterlimit:10;stroke-dasharray:none;stroke-opacity:1"
             d="M 1125,2300 V 2153.7 H 825 V 2300 Z" /></g><g
           transform="matrix(3.125,0,0,3.125,4295.8984,7558.4375)"
           id="g248"><text
             id="text252"
             style="font-variant:normal;font-weight:normal;font-size:60px;font-family:OpenSans;-inkscape-font-specification:OpenSans;writing-mode:lr-tb;fill:#000000;fill-opacity:1;fill-rule:nonzero;stroke:none"
             transform="translate(-34.306641)"><tspan
               id="tspan250"
               y="0"
               x="0 34.306641">16</tspan></text>
</g><g
           transform="matrix(15.625,0,0,15.625,1250,937.5)"
           id="g254"><path
             id="path256"
             style="fill:#73c25c;fill-opacity:1;fill-rule:nonzero;stroke:none"
             d="M 75,460 V 366.75 H 15 V 460 Z" /></g><g
           transform="matrix(3.125,0,0,3.125,1250,937.5)"
           id="g258"><path
             id="path260"
             style="fill:none;stroke:#e5ecf6;stroke-width:1;stroke-linecap:butt;stroke-linejoin:miter;stroke-miterlimit:10;stroke-dasharray:none;stroke-opacity:1"
             d="M 375,2300 V 1833.75 H 75 V 2300 Z" /></g><g
           transform="matrix(3.125,0,0,3.125,1953.125,6558.5938)"
           id="g262"><text
             id="text266"
             style="font-variant:normal;font-weight:normal;font-size:60px;font-family:OpenSans;-inkscape-font-specification:OpenSans;writing-mode:lr-tb;fill:#000000;fill-opacity:1;fill-rule:nonzero;stroke:none"
             transform="translate(-34.306641)"><tspan
               id="tspan264"
               y="0"
               x="0 34.306641">51</tspan></text>
</g></g></g><g
       id="g268"><g
         clip-path="url(#clipPath274)"
         id="g270"><g
           transform="matrix(3.125,0,0,3.125,2421.875,0)"
           id="g276"><text
             id="text280"
             style="font-variant:normal;font-weight:normal;font-size:60px;font-family:OpenSans;-inkscape-font-specification:OpenSans;writing-mode:lr-tb;fill:#000000;fill-opacity:1;fill-rule:nonzero;stroke:none"
             transform="translate(-186.91406,2665)"><tspan
               id="tspan278"
               y="0"
               x="0 43.681641 80.507812 95.683594 116.86523 150.52734 187.29492 202.88086 235.81055 256.99219 290.36133 311.54297 345.20508">United States</tspan></text>
</g><g
           transform="matrix(3.125,0,0,3.125,4765.625,0)"
           id="g282"><text
             id="text286"
             style="font-variant:normal;font-weight:normal;font-size:60px;font-family:OpenSans;-inkscape-font-specification:OpenSans;writing-mode:lr-tb;fill:#000000;fill-opacity:1;fill-rule:nonzero;stroke:none"
             transform="translate(-226.69922,2665)"><tspan
               id="tspan284"
               y="0"
               x="0 43.681641 80.507812 95.683594 116.86523 150.52734 187.29492 202.88086 239.70703 254.88281 291.70898 324.58008 361.34766 397.58789">United Kingdom</tspan></text>
</g><g
           transform="matrix(3.125,0,0,3.125,7109.375,0)"
           id="g288"><text
             id="text292"
             style="font-variant:normal;font-weight:normal;font-size:60px;font-family:OpenSans;-inkscape-font-specification:OpenSans;writing-mode:lr-tb;fill:#000000;fill-opacity:1;fill-rule:nonzero;stroke:none"
             transform="translate(-78.178711,2665)"><tspan
               id="tspan290"
               y="0"
               x="0 16.025391 49.394531 86.162109 119.53125">Japan</tspan></text>
</g><g
           transform="matrix(3.125,0,0,3.125,9453.125,0)"
           id="g294"><text
             id="text298"
             style="font-variant:normal;font-weight:normal;font-size:60px;font-family:OpenSans;-inkscape-font-specification:OpenSans;writing-mode:lr-tb;fill:#000000;fill-opacity:1;fill-rule:nonzero;stroke:none"
             transform="translate(-58.344727,2665)"><tspan
               id="tspan296"
               y="0"
               x="0 16.728516 37.910156 71.279297 86.455078">Italy</tspan></text>
</g><g
           transform="matrix(3.125,0,0,3.125,11796.875,0)"
           id="g300"><text
             id="text304"
             style="font-variant:normal;font-weight:normal;font-size:60px;font-family:OpenSans;-inkscape-font-specification:OpenSans;writing-mode:lr-tb;fill:#000000;fill-opacity:1;fill-rule:nonzero;stroke:none"
             transform="translate(-129.03809,2665)"><tspan
               id="tspan302"
               y="0"
               x="0 43.681641 77.34375 101.83594 157.64648 191.01562 227.8418">Germany</tspan></text>
</g><g
           transform="matrix(3.125,0,0,3.125,14140.625,0)"
           id="g306"><text
             id="text310"
             style="font-variant:normal;font-weight:normal;font-size:60px;font-family:OpenSans;-inkscape-font-specification:OpenSans;writing-mode:lr-tb;fill:#000000;fill-opacity:1;fill-rule:nonzero;stroke:none"
             transform="translate(-93.94043,2665)"><tspan
               id="tspan308"
               y="0"
               x="0 30.966797 55.458984 88.828125 125.6543 154.21875">France</tspan></text>
</g><g
           transform="matrix(3.125,0,0,3.125,16484.375,0)"
           id="g312"><text
             id="text316"
             style="font-variant:normal;font-weight:normal;font-size:60px;font-family:OpenSans;-inkscape-font-specification:OpenSans;writing-mode:lr-tb;fill:#000000;fill-opacity:1;fill-rule:nonzero;stroke:none"
             transform="translate(-80.024414,2665)"><tspan
               id="tspan314"
               y="0"
               x="0 37.851562 74.677734 89.853516 126.67969">China</tspan></text>
</g><g
           transform="matrix(3.125,0,0,3.125,18828.125,0)"
           id="g318"><text
             id="text322"
             style="font-variant:normal;font-weight:normal;font-size:60px;font-family:OpenSans;-inkscape-font-specification:OpenSans;writing-mode:lr-tb;fill:#000000;fill-opacity:1;fill-rule:nonzero;stroke:none"
             transform="translate(-105.77637,2665)"><tspan
               id="tspan320"
               y="0"
               x="0 37.851562 71.220703 108.04688 141.41602 178.18359">Canada</tspan></text>
</g><g
           transform="matrix(15.625,0,0,15.625,18625,2046.875)"
           id="g324"><path
             id="path326"
             style="fill:#ffffff;fill-opacity:1;fill-rule:nonzero;stroke:none"
             d="M 0,0 H 196 V 67 H 0 Z" /></g></g></g><g
       id="g328"><g
         clip-path="url(#clipPath334)"
         id="g330"><g
           transform="matrix(3.125,0,0,3.125,18625,2046.875)"
           id="g336"><text
             id="text340"
             style="font-variant:normal;font-weight:normal;font-size:70px;font-family:OpenSans;-inkscape-font-specification:OpenSans;writing-mode:lr-tb;fill:#000000;fill-opacity:1;fill-rule:nonzero;stroke:none"
             transform="translate(10,91)"><tspan
               id="tspan338"
               y="0"
               x="0 36.333008 78.613281 111.93848 150.86914 175.58105 193.28613 235.56641 278.53027 296.71387 338.99414 362.71484 380.89844 446.01074 485.2832 528.17871 567.10938 584.81445 602.99805 641.92871 675.25391 718.14941 761.11328 778.81836 812.21191 829.91699 854.62891 872.33398 914.61426">Location of medal acquisition</tspan></text>
</g><g
           transform="matrix(3.125,0,0,3.125,18625,2557.8125)"
           id="g342"><text
             id="text346"
             style="font-variant:normal;font-weight:normal;font-size:60px;font-family:OpenSans;-inkscape-font-specification:OpenSans;writing-mode:lr-tb;fill:#000000;fill-opacity:1;fill-rule:nonzero;stroke:none"
             transform="translate(200,23.4)"><tspan
               id="tspan344"
               y="0"
               x="0 44.267578 80.507812 136.31836">Home</tspan></text>
</g><g
           transform="matrix(15.625,0,0,15.625,18937.5,2557.8125)"
           id="g348"><path
             id="path350"
             style="fill:#00b0d1;fill-opacity:1;fill-rule:nonzero;stroke:none"
             d="M -6,-6 H 6 V 6 H -6 Z" /><path
             id="path352"
             style="fill:none;stroke:#e5ecf6;stroke-width:1;stroke-linecap:butt;stroke-linejoin:miter;stroke-miterlimit:10;stroke-dasharray:none;stroke-opacity:1"
             d="M -6,-6 H 6 V 6 H -6 Z" /></g><g
           transform="matrix(3.125,0,0,3.125,18625,2854.6875)"
           id="g354"><text
             id="text358"
             style="font-variant:normal;font-weight:normal;font-size:60px;font-family:OpenSans;-inkscape-font-specification:OpenSans;writing-mode:lr-tb;fill:#000000;fill-opacity:1;fill-rule:nonzero;stroke:none"
             transform="translate(200,23.4)"><tspan
               id="tspan356"
               y="0"
               x="0 37.96875 84.638672 118.00781">Away</tspan></text>
</g><g
           transform="matrix(15.625,0,0,15.625,18937.5,2854.6875)"
           id="g360"><path
             id="path362"
             style="fill:#73c25c;fill-opacity:1;fill-rule:nonzero;stroke:none"
             d="M -6,-6 H 6 V 6 H -6 Z" /><path
             id="path364"
             style="fill:none;stroke:#e5ecf6;stroke-width:1;stroke-linecap:butt;stroke-linejoin:miter;stroke-miterlimit:10;stroke-dasharray:none;stroke-opacity:1"
             d="M -6,-6 H 6 V 6 H -6 Z" /></g></g></g><g
       id="g366"><g
         clip-path="url(#clipPath372)"
         id="g368"><g
           transform="scale(3.125)"
           id="g374"><text
             id="text378"
             style="font-variant:normal;font-weight:bold;font-size:100px;font-family:OpenSans;-inkscape-font-specification:OpenSans-Bold;writing-mode:lr-tb;fill:#000000;fill-opacity:1;fill-rule:nonzero;stroke:none"
             transform="translate(1918.5303,150)"><tspan
               id="tspan376"
               y="0"
               x="0 57.910156 123.63281 182.71484 208.69141 288.28125 318.79883 375.68359 473.87695 537.1582 567.67578 619.0918 645.06836 721.58203 783.49609 833.20312 876.61133 902.58789 971.58203 1034.8633 1091.748 1152.1484 1217.8711 1261.2793 1321.6797 1378.1738 1437.2559 1465.7715 1491.748 1560.7422 1586.7188 1653.9062 1715.8203 1777.7344 1827.4414 1870.8496 1896.8262 1927.3438 1993.0664 2019.043 2100.3418 2160.7422 2204.1504 2234.668 2296.582 2362.3047 2422.7051 2453.2227 2479.1992 2573.4863 2632.5684 2695.8496 2756.25 2786.7676 2812.7441 2876.4648 2938.3789 3004.1016 3069.8242 3113.2324">The Olympic Host Advantage: A Boost in National Medal Counts</tspan></text>
<text
             id="text382"
             style="font-variant:normal;font-weight:normal;font-size:75px;font-family:OpenSans;-inkscape-font-specification:OpenSans;writing-mode:lr-tb;fill:#000000;fill-opacity:1;fill-rule:nonzero;stroke:none"
             transform="translate(119.9646,280)"><tspan
               id="tspan380"
               y="0"
               x="0 67.712402 109.79004 155.74951 197.46094 216.43066 235.91309 283.22754 328.52783 374.56055 420.59326 447.07031 466.55273 512.91504 554.62646 581.10352 600.07324 645.37354 665.33203 684.81445 732.27539 751.75781 821.521 863.59863 905.31006 941.08887 987.12158 1017.7368 1059.8145 1079.2969 1124.5972 1150.0122 1169.4946 1211.2061 1230.6885 1266.394 1311.6943 1357.7271 1403.7598 1430.2368 1460.8521 1498.645 1515.2344 1551.0132 1570.4956 1628.9062 1647.876 1685.6689 1755.4321 1801.3916 1820.3613 1856.0669 1875.5493 1921.5088 1963.5864 1994.2017 2019.6167 2064.917 2095.5322 2165.2954 2207.0068 2253.0396 2288.7451 2330.8228 2349.2065 2368.689 2404.3945 2446.106 2465.0757 2500.7812 2546.814 2565.7837 2607.4951 2633.9722 2676.0498 2722.0093 2741.4917 2783.2031 2818.9819 2838.4644 2864.9414 2910.9741 2953.0518 2972.5342 3018.5669 3064.5996 3134.3628 3180.3223 3222.3999 3253.0151 3272.4976 3317.7979 3343.2129 3362.6953 3432.4585 3474.5361 3520.4956 3562.207 3581.1768 3616.9556 3636.438 3694.7754 3740.0757 3786.1084 3805.5908 3851.5503 3870.52 3908.0933 3927.063 3973.0225 4015.1001 4061.0596 4080.542 4126.5015 4164.2944 4183.7769 4210.2539 4256.2866 4298.3643 4317.8467 4363.8794 4409.9121 4479.6753 4525.6348 4567.7124 4598.3276 4617.8101 4663.1104 4688.5254 4708.0078 4766.4185 4785.3882 4823.1812 4892.9443 4938.9038 4957.8735 4993.5791 5013.0615 5059.021 5100.7324 5131.3477 5157.8247 5176.7944 5212.5 5231.4697 5277.4292 5319.1406 5345.6177 5364.5874 5409.8877 5455.9204 5491.6992 5511.1816 5533.374 5588.0493 5629.7607 5656.2378 5697.9492 5717.4316 5753.1372 5798.4375 5817.4072 5836.377 5878.4546 5914.1602 5940.6372 5982.7148 6028.6743 6048.1567 6094.1162 6136.1938 6162.6709 6221.0083 6263.0859 6305.1636 6351.1963 6370.6787 6413.562 6456.4453 6499.3286 6542.2119 6566.3452 6609.2285 6652.1118 6694.9951 6737.8784">Medal Count Ratio: A measure of a country's Olympic performance, calculated as the number of medals won divided by the number of Olympic participations (Data collected between 1896-2021)</tspan></text>
</g><g
           transform="matrix(3.125,0,0,3.125,1812.5,8953.125)"
           id="g384"><text
             id="text388"
             style="font-variant:normal;font-weight:normal;font-size:60px;font-family:OpenSans;-inkscape-font-specification:OpenSans;writing-mode:lr-tb;fill:#000000;fill-opacity:1;fill-rule:nonzero;stroke:none"
             transform="translate(10.053711,75)"><tspan
               id="tspan386"
               y="0"
               x="0 43.740234 77.109375 98.291016 131.66016 147.24609 175.86914 212.10938 248.93555 273.42773 301.99219 335.6543 351.62109 367.20703 404.0332 425.21484 446.39648 483.16406 511.78711 527.75391 549.78516 571.81641 618.48633 665.15625 711.82617 727.79297 759.28711 792.65625 825.52734 858.39844 873.57422 907.23633 923.20312 951.76758 988.00781 1043.8184 1065.8496 1102.6172 1135.9863 1157.168 1190.5371 1219.1602 1252.8223 1274.0039 1302.627 1324.6582 1339.834 1376.0742 1404.6973 1438.3594 1475.127 1511.9531 1540.5176 1577.3438 1611.0059 1647.832 1680.7031 1715.0098 1749.3164 1783.623 1817.9297 1852.2363 1886.543 1908.5742 1944.8145 1959.9902 1990.2246 2046.0352 2082.8027 2097.9785 2126.543 2145.8496 2182.6758 2197.8516 2226.4746 2247.6562 2283.8965 2308.3887 2323.5645 2352.1289 2385.498 2400.6738 2419.9805 2456.748 2490.1172 2511.2988 2544.668 2573.291 2606.9531 2628.1348 2647.4414 2667.7734 2692.2656 2728.5059 2784.3164 2803.623 2839.8633 2855.0391 2885.2734 2941.084 2977.8516 3011.5137 3048.2812 3063.457 3096.8262 3133.0664 3157.5586 3190.4297 3216.1816 3244.8047 3278.4668 3293.6426 3327.3047 3355.8691 3377.0508 3411.3574 3458.0859 3473.2617 3503.4961 3559.3066 3596.0742 3611.25 3639.8145 3666.709 3704.6777 3725.8594 3762.6855 3777.8613 3811.5234 3832.7051 3866.3672 3893.2617 3932.1387 3947.3145 3983.5547 3999.5215 4028.0859 4056.709">Data source: https://www.kaggle.com/datasets/josephcheng123456/olympic-historical-dataset-from-olympediaorg?select=Olympic_Athlete_Bio.csv</tspan></text>
</g></g></g></g></svg>